<mxfile host="Electron" modified="2023-09-01T05:25:29.418Z" agent="Mozilla/5.0 (Windows NT 10.0; Win64; x64) AppleWebKit/537.36 (KHTML, like Gecko) draw.io/21.6.8 Chrome/114.0.5735.289 Electron/25.5.0 Safari/537.36" etag="0gNvUQim-ZuU-qC1wVgr" version="21.6.8" type="device">
  <diagram name="Page-1" id="5hD18uTBT4yL4_6-Zz2Z">
    <mxGraphModel dx="2896" dy="1837" grid="1" gridSize="10" guides="1" tooltips="1" connect="1" arrows="1" fold="1" page="1" pageScale="1" pageWidth="1169" pageHeight="827" background="#ffffff" math="0" shadow="0">
      <root>
        <mxCell id="0" />
        <mxCell id="1" parent="0" />
        <mxCell id="MhV0f1ImMpq3AGTW3nh8-1" value="&lt;pre&gt;&lt;font style=&quot;font-size: 34px;&quot;&gt;KUBERNETES&lt;/font&gt;&lt;/pre&gt;" style="rounded=1;whiteSpace=wrap;html=1;" parent="1" vertex="1">
          <mxGeometry x="40" y="-15" width="300" height="60" as="geometry" />
        </mxCell>
        <mxCell id="MhV0f1ImMpq3AGTW3nh8-3" value="&lt;font style=&quot;font-size: 21px;&quot;&gt;Workloads&lt;/font&gt;" style="rounded=0;whiteSpace=wrap;html=1;" parent="1" vertex="1">
          <mxGeometry x="125" y="75" width="120" height="60" as="geometry" />
        </mxCell>
        <mxCell id="MhV0f1ImMpq3AGTW3nh8-4" value="" style="endArrow=classic;html=1;rounded=0;exitX=0.25;exitY=1;exitDx=0;exitDy=0;" parent="1" edge="1">
          <mxGeometry width="50" height="50" relative="1" as="geometry">
            <mxPoint x="60" y="45" as="sourcePoint" />
            <mxPoint x="60" y="445" as="targetPoint" />
          </mxGeometry>
        </mxCell>
        <mxCell id="MhV0f1ImMpq3AGTW3nh8-5" value="" style="endArrow=classic;html=1;rounded=0;entryX=0;entryY=0.5;entryDx=0;entryDy=0;" parent="1" target="MhV0f1ImMpq3AGTW3nh8-3" edge="1">
          <mxGeometry width="50" height="50" relative="1" as="geometry">
            <mxPoint x="65" y="105" as="sourcePoint" />
            <mxPoint x="375" y="245" as="targetPoint" />
          </mxGeometry>
        </mxCell>
        <mxCell id="MhV0f1ImMpq3AGTW3nh8-6" value="&lt;font style=&quot;font-size: 21px;&quot;&gt;Services&lt;br&gt;&lt;/font&gt;" style="rounded=0;whiteSpace=wrap;html=1;" parent="1" vertex="1">
          <mxGeometry x="125" y="165" width="120" height="60" as="geometry" />
        </mxCell>
        <mxCell id="MhV0f1ImMpq3AGTW3nh8-7" value="" style="endArrow=classic;html=1;rounded=0;entryX=0;entryY=0.5;entryDx=0;entryDy=0;" parent="1" target="MhV0f1ImMpq3AGTW3nh8-6" edge="1">
          <mxGeometry width="50" height="50" relative="1" as="geometry">
            <mxPoint x="65" y="195" as="sourcePoint" />
            <mxPoint x="375" y="255" as="targetPoint" />
          </mxGeometry>
        </mxCell>
        <mxCell id="MhV0f1ImMpq3AGTW3nh8-8" value="" style="endArrow=classic;html=1;rounded=0;exitX=1;exitY=0.5;exitDx=0;exitDy=0;" parent="1" source="MhV0f1ImMpq3AGTW3nh8-3" edge="1">
          <mxGeometry width="50" height="50" relative="1" as="geometry">
            <mxPoint x="330" y="105" as="sourcePoint" />
            <mxPoint x="970.24" y="105" as="targetPoint" />
          </mxGeometry>
        </mxCell>
        <mxCell id="MhV0f1ImMpq3AGTW3nh8-9" value="" style="endArrow=none;html=1;rounded=0;" parent="1" edge="1">
          <mxGeometry width="50" height="50" relative="1" as="geometry">
            <mxPoint x="900" y="355" as="sourcePoint" />
            <mxPoint x="900.24" y="105" as="targetPoint" />
          </mxGeometry>
        </mxCell>
        <mxCell id="MhV0f1ImMpq3AGTW3nh8-10" value="" style="endArrow=classic;html=1;rounded=0;entryX=0;entryY=0.5;entryDx=0;entryDy=0;" parent="1" target="MhV0f1ImMpq3AGTW3nh8-16" edge="1">
          <mxGeometry width="50" height="50" relative="1" as="geometry">
            <mxPoint x="900.24" y="155" as="sourcePoint" />
            <mxPoint x="960.24" y="155" as="targetPoint" />
          </mxGeometry>
        </mxCell>
        <mxCell id="MhV0f1ImMpq3AGTW3nh8-15" value="&lt;font style=&quot;font-size: 15px;&quot;&gt;Replication Controller&lt;/font&gt;" style="rounded=1;whiteSpace=wrap;html=1;" parent="1" vertex="1">
          <mxGeometry x="970.24" y="85" width="120" height="40" as="geometry" />
        </mxCell>
        <mxCell id="MhV0f1ImMpq3AGTW3nh8-16" value="&lt;font style=&quot;font-size: 15px;&quot;&gt;Replica Set&lt;/font&gt;" style="rounded=1;whiteSpace=wrap;html=1;" parent="1" vertex="1">
          <mxGeometry x="970.24" y="135" width="120" height="40" as="geometry" />
        </mxCell>
        <mxCell id="MhV0f1ImMpq3AGTW3nh8-17" value="" style="endArrow=classic;html=1;rounded=0;entryX=0;entryY=0.5;entryDx=0;entryDy=0;" parent="1" target="MhV0f1ImMpq3AGTW3nh8-18" edge="1">
          <mxGeometry width="50" height="50" relative="1" as="geometry">
            <mxPoint x="900.24" y="205" as="sourcePoint" />
            <mxPoint x="960.24" y="205" as="targetPoint" />
          </mxGeometry>
        </mxCell>
        <mxCell id="MhV0f1ImMpq3AGTW3nh8-18" value="&lt;font style=&quot;font-size: 15px;&quot;&gt;Deployment&lt;/font&gt;" style="rounded=1;whiteSpace=wrap;html=1;" parent="1" vertex="1">
          <mxGeometry x="970.24" y="185" width="120" height="40" as="geometry" />
        </mxCell>
        <mxCell id="MhV0f1ImMpq3AGTW3nh8-19" value="" style="endArrow=classic;html=1;rounded=0;entryX=0;entryY=0.5;entryDx=0;entryDy=0;" parent="1" target="MhV0f1ImMpq3AGTW3nh8-20" edge="1">
          <mxGeometry width="50" height="50" relative="1" as="geometry">
            <mxPoint x="900.24" y="255" as="sourcePoint" />
            <mxPoint x="960.24" y="255" as="targetPoint" />
          </mxGeometry>
        </mxCell>
        <mxCell id="MhV0f1ImMpq3AGTW3nh8-20" value="&lt;font style=&quot;font-size: 15px;&quot;&gt;Daemon Set&lt;/font&gt;" style="rounded=1;whiteSpace=wrap;html=1;" parent="1" vertex="1">
          <mxGeometry x="970.24" y="235" width="120" height="40" as="geometry" />
        </mxCell>
        <mxCell id="MhV0f1ImMpq3AGTW3nh8-21" value="" style="endArrow=classic;html=1;rounded=0;entryX=0;entryY=0.5;entryDx=0;entryDy=0;" parent="1" target="MhV0f1ImMpq3AGTW3nh8-22" edge="1">
          <mxGeometry width="50" height="50" relative="1" as="geometry">
            <mxPoint x="900.24" y="305" as="sourcePoint" />
            <mxPoint x="960.24" y="305" as="targetPoint" />
          </mxGeometry>
        </mxCell>
        <mxCell id="MhV0f1ImMpq3AGTW3nh8-22" value="&lt;font style=&quot;font-size: 15px;&quot;&gt;Deployment&lt;/font&gt;" style="rounded=1;whiteSpace=wrap;html=1;" parent="1" vertex="1">
          <mxGeometry x="970.24" y="285" width="120" height="40" as="geometry" />
        </mxCell>
        <mxCell id="MhV0f1ImMpq3AGTW3nh8-23" value="" style="endArrow=classic;html=1;rounded=0;exitX=1;exitY=0.5;exitDx=0;exitDy=0;entryX=0;entryY=0.5;entryDx=0;entryDy=0;" parent="1" source="MhV0f1ImMpq3AGTW3nh8-6" target="MhV0f1ImMpq3AGTW3nh8-25" edge="1">
          <mxGeometry width="50" height="50" relative="1" as="geometry">
            <mxPoint x="330" y="195" as="sourcePoint" />
            <mxPoint x="630" y="195" as="targetPoint" />
          </mxGeometry>
        </mxCell>
        <mxCell id="MhV0f1ImMpq3AGTW3nh8-25" value="&lt;font style=&quot;font-size: 15px;&quot;&gt;clusterIP&lt;/font&gt;" style="rounded=1;whiteSpace=wrap;html=1;" parent="1" vertex="1">
          <mxGeometry x="760" y="175" width="120" height="40" as="geometry" />
        </mxCell>
        <mxCell id="MhV0f1ImMpq3AGTW3nh8-27" value="&lt;font style=&quot;font-size: 15px;&quot;&gt;nodePort&lt;/font&gt;" style="rounded=1;whiteSpace=wrap;html=1;" parent="1" vertex="1">
          <mxGeometry x="760" y="225" width="120" height="40" as="geometry" />
        </mxCell>
        <mxCell id="MhV0f1ImMpq3AGTW3nh8-28" value="" style="endArrow=classic;html=1;rounded=0;entryX=0;entryY=0.5;entryDx=0;entryDy=0;" parent="1" edge="1">
          <mxGeometry width="50" height="50" relative="1" as="geometry">
            <mxPoint x="690.24" y="244.5" as="sourcePoint" />
            <mxPoint x="760" y="244.5" as="targetPoint" />
          </mxGeometry>
        </mxCell>
        <mxCell id="MhV0f1ImMpq3AGTW3nh8-29" value="&lt;font style=&quot;font-size: 15px;&quot;&gt;External Name&lt;/font&gt;" style="rounded=1;whiteSpace=wrap;html=1;" parent="1" vertex="1">
          <mxGeometry x="760" y="275" width="120" height="40" as="geometry" />
        </mxCell>
        <mxCell id="MhV0f1ImMpq3AGTW3nh8-30" value="" style="endArrow=classic;html=1;rounded=0;entryX=0;entryY=0.5;entryDx=0;entryDy=0;" parent="1" edge="1">
          <mxGeometry width="50" height="50" relative="1" as="geometry">
            <mxPoint x="690.24" y="294.5" as="sourcePoint" />
            <mxPoint x="760" y="294.5" as="targetPoint" />
          </mxGeometry>
        </mxCell>
        <mxCell id="MhV0f1ImMpq3AGTW3nh8-31" value="&lt;font style=&quot;font-size: 15px;&quot;&gt;External IP&lt;/font&gt;" style="rounded=1;whiteSpace=wrap;html=1;" parent="1" vertex="1">
          <mxGeometry x="760" y="325" width="120" height="40" as="geometry" />
        </mxCell>
        <mxCell id="MhV0f1ImMpq3AGTW3nh8-32" value="" style="endArrow=classic;html=1;rounded=0;entryX=0;entryY=0.5;entryDx=0;entryDy=0;" parent="1" edge="1">
          <mxGeometry width="50" height="50" relative="1" as="geometry">
            <mxPoint x="690.24" y="344.5" as="sourcePoint" />
            <mxPoint x="760" y="344.5" as="targetPoint" />
          </mxGeometry>
        </mxCell>
        <mxCell id="MhV0f1ImMpq3AGTW3nh8-33" value="&lt;font style=&quot;font-size: 15px;&quot;&gt;Headless&lt;/font&gt;" style="rounded=1;whiteSpace=wrap;html=1;" parent="1" vertex="1">
          <mxGeometry x="760" y="375" width="120" height="40" as="geometry" />
        </mxCell>
        <mxCell id="MhV0f1ImMpq3AGTW3nh8-34" value="" style="endArrow=classic;html=1;rounded=0;entryX=0;entryY=0.5;entryDx=0;entryDy=0;" parent="1" edge="1">
          <mxGeometry width="50" height="50" relative="1" as="geometry">
            <mxPoint x="690.24" y="394.5" as="sourcePoint" />
            <mxPoint x="760" y="394.5" as="targetPoint" />
          </mxGeometry>
        </mxCell>
        <mxCell id="MhV0f1ImMpq3AGTW3nh8-36" value="" style="endArrow=classic;html=1;rounded=0;entryX=0;entryY=0.5;entryDx=0;entryDy=0;exitX=1;exitY=0.5;exitDx=0;exitDy=0;" parent="1" source="MhV0f1ImMpq3AGTW3nh8-38" edge="1">
          <mxGeometry width="50" height="50" relative="1" as="geometry">
            <mxPoint x="330" y="285" as="sourcePoint" />
            <mxPoint x="559.76" y="284.5" as="targetPoint" />
          </mxGeometry>
        </mxCell>
        <mxCell id="MhV0f1ImMpq3AGTW3nh8-37" value="" style="endArrow=none;html=1;rounded=0;" parent="1" edge="1">
          <mxGeometry width="50" height="50" relative="1" as="geometry">
            <mxPoint x="690" y="495" as="sourcePoint" />
            <mxPoint x="690" y="195" as="targetPoint" />
          </mxGeometry>
        </mxCell>
        <mxCell id="MhV0f1ImMpq3AGTW3nh8-38" value="&lt;font style=&quot;font-size: 21px;&quot;&gt;Storages&lt;br&gt;&lt;/font&gt;" style="rounded=0;whiteSpace=wrap;html=1;" parent="1" vertex="1">
          <mxGeometry x="125" y="255" width="120" height="60" as="geometry" />
        </mxCell>
        <mxCell id="MhV0f1ImMpq3AGTW3nh8-39" value="" style="endArrow=classic;html=1;rounded=0;entryX=0;entryY=0.5;entryDx=0;entryDy=0;" parent="1" target="MhV0f1ImMpq3AGTW3nh8-38" edge="1">
          <mxGeometry width="50" height="50" relative="1" as="geometry">
            <mxPoint x="65" y="285" as="sourcePoint" />
            <mxPoint x="375" y="345" as="targetPoint" />
          </mxGeometry>
        </mxCell>
        <mxCell id="MhV0f1ImMpq3AGTW3nh8-40" value="&lt;font style=&quot;font-size: 21px;&quot;&gt;Misc&lt;br&gt;&lt;/font&gt;" style="rounded=0;whiteSpace=wrap;html=1;" parent="1" vertex="1">
          <mxGeometry x="125" y="345" width="120" height="60" as="geometry" />
        </mxCell>
        <mxCell id="MhV0f1ImMpq3AGTW3nh8-41" value="" style="endArrow=classic;html=1;rounded=0;entryX=0;entryY=0.5;entryDx=0;entryDy=0;" parent="1" target="MhV0f1ImMpq3AGTW3nh8-40" edge="1">
          <mxGeometry width="50" height="50" relative="1" as="geometry">
            <mxPoint x="65" y="375" as="sourcePoint" />
            <mxPoint x="375" y="435" as="targetPoint" />
          </mxGeometry>
        </mxCell>
        <mxCell id="MhV0f1ImMpq3AGTW3nh8-42" value="&lt;font style=&quot;font-size: 15px;&quot;&gt;Ingress Controller&lt;/font&gt;" style="rounded=1;whiteSpace=wrap;html=1;" parent="1" vertex="1">
          <mxGeometry x="760" y="425" width="120" height="40" as="geometry" />
        </mxCell>
        <mxCell id="MhV0f1ImMpq3AGTW3nh8-43" value="" style="endArrow=classic;html=1;rounded=0;entryX=0;entryY=0.5;entryDx=0;entryDy=0;" parent="1" edge="1">
          <mxGeometry width="50" height="50" relative="1" as="geometry">
            <mxPoint x="690.24" y="444.5" as="sourcePoint" />
            <mxPoint x="760" y="444.5" as="targetPoint" />
          </mxGeometry>
        </mxCell>
        <mxCell id="MhV0f1ImMpq3AGTW3nh8-44" value="&lt;font style=&quot;font-size: 15px;&quot;&gt;Jobs&lt;/font&gt;" style="rounded=1;whiteSpace=wrap;html=1;" parent="1" vertex="1">
          <mxGeometry x="359.76" y="355" width="120" height="40" as="geometry" />
        </mxCell>
        <mxCell id="MhV0f1ImMpq3AGTW3nh8-45" value="" style="endArrow=classic;html=1;rounded=0;entryX=0;entryY=0.5;entryDx=0;entryDy=0;exitX=1;exitY=0.5;exitDx=0;exitDy=0;" parent="1" source="MhV0f1ImMpq3AGTW3nh8-40" edge="1">
          <mxGeometry width="50" height="50" relative="1" as="geometry">
            <mxPoint x="290" y="374.5" as="sourcePoint" />
            <mxPoint x="359.76" y="374.5" as="targetPoint" />
          </mxGeometry>
        </mxCell>
        <mxCell id="MhV0f1ImMpq3AGTW3nh8-46" value="&lt;font style=&quot;font-size: 15px;&quot;&gt;hostPath&lt;/font&gt;" style="rounded=1;whiteSpace=wrap;html=1;" parent="1" vertex="1">
          <mxGeometry x="560" y="315" width="120" height="40" as="geometry" />
        </mxCell>
        <mxCell id="MhV0f1ImMpq3AGTW3nh8-47" value="" style="endArrow=classic;html=1;rounded=0;entryX=0;entryY=0.5;entryDx=0;entryDy=0;" parent="1" edge="1">
          <mxGeometry width="50" height="50" relative="1" as="geometry">
            <mxPoint x="490.24" y="334.5" as="sourcePoint" />
            <mxPoint x="560" y="334.5" as="targetPoint" />
          </mxGeometry>
        </mxCell>
        <mxCell id="MhV0f1ImMpq3AGTW3nh8-48" value="&lt;span style=&quot;font-size: 15px;&quot;&gt;downwardAPI&lt;/span&gt;" style="rounded=1;whiteSpace=wrap;html=1;" parent="1" vertex="1">
          <mxGeometry x="560" y="365" width="120" height="40" as="geometry" />
        </mxCell>
        <mxCell id="MhV0f1ImMpq3AGTW3nh8-49" value="" style="endArrow=classic;html=1;rounded=0;entryX=0;entryY=0.5;entryDx=0;entryDy=0;" parent="1" edge="1">
          <mxGeometry width="50" height="50" relative="1" as="geometry">
            <mxPoint x="490.24" y="384.5" as="sourcePoint" />
            <mxPoint x="560" y="384.5" as="targetPoint" />
          </mxGeometry>
        </mxCell>
        <mxCell id="MhV0f1ImMpq3AGTW3nh8-50" value="&lt;font style=&quot;font-size: 15px;&quot;&gt;local&lt;/font&gt;" style="rounded=1;whiteSpace=wrap;html=1;" parent="1" vertex="1">
          <mxGeometry x="560" y="415" width="120" height="40" as="geometry" />
        </mxCell>
        <mxCell id="MhV0f1ImMpq3AGTW3nh8-51" value="" style="endArrow=classic;html=1;rounded=0;entryX=0;entryY=0.5;entryDx=0;entryDy=0;" parent="1" edge="1">
          <mxGeometry width="50" height="50" relative="1" as="geometry">
            <mxPoint x="490.24" y="434.5" as="sourcePoint" />
            <mxPoint x="560" y="434.5" as="targetPoint" />
          </mxGeometry>
        </mxCell>
        <mxCell id="MhV0f1ImMpq3AGTW3nh8-52" value="&lt;font style=&quot;font-size: 15px;&quot;&gt;nfs&lt;/font&gt;" style="rounded=1;whiteSpace=wrap;html=1;" parent="1" vertex="1">
          <mxGeometry x="560" y="465" width="120" height="40" as="geometry" />
        </mxCell>
        <mxCell id="MhV0f1ImMpq3AGTW3nh8-53" value="" style="endArrow=classic;html=1;rounded=0;entryX=0;entryY=0.5;entryDx=0;entryDy=0;" parent="1" edge="1">
          <mxGeometry width="50" height="50" relative="1" as="geometry">
            <mxPoint x="490.24" y="484.5" as="sourcePoint" />
            <mxPoint x="560" y="484.5" as="targetPoint" />
          </mxGeometry>
        </mxCell>
        <mxCell id="MhV0f1ImMpq3AGTW3nh8-54" value="" style="endArrow=none;html=1;rounded=0;" parent="1" edge="1">
          <mxGeometry width="50" height="50" relative="1" as="geometry">
            <mxPoint x="490" y="535" as="sourcePoint" />
            <mxPoint x="490" y="285" as="targetPoint" />
          </mxGeometry>
        </mxCell>
        <mxCell id="MhV0f1ImMpq3AGTW3nh8-59" value="" style="edgeStyle=orthogonalEdgeStyle;rounded=0;orthogonalLoop=1;jettySize=auto;html=1;" parent="1" source="MhV0f1ImMpq3AGTW3nh8-55" target="MhV0f1ImMpq3AGTW3nh8-58" edge="1">
          <mxGeometry relative="1" as="geometry" />
        </mxCell>
        <mxCell id="MhV0f1ImMpq3AGTW3nh8-55" value="&lt;font style=&quot;font-size: 15px;&quot;&gt;Storage Class&lt;/font&gt;" style="rounded=1;whiteSpace=wrap;html=1;" parent="1" vertex="1">
          <mxGeometry x="560" y="515" width="120" height="40" as="geometry" />
        </mxCell>
        <mxCell id="MhV0f1ImMpq3AGTW3nh8-56" value="" style="endArrow=classic;html=1;rounded=0;entryX=0;entryY=0.5;entryDx=0;entryDy=0;" parent="1" edge="1">
          <mxGeometry width="50" height="50" relative="1" as="geometry">
            <mxPoint x="490.24" y="534.5" as="sourcePoint" />
            <mxPoint x="560" y="534.5" as="targetPoint" />
          </mxGeometry>
        </mxCell>
        <mxCell id="MhV0f1ImMpq3AGTW3nh8-57" value="&lt;span style=&quot;font-size: 15px;&quot;&gt;emptyDir&lt;/span&gt;" style="rounded=1;whiteSpace=wrap;html=1;" parent="1" vertex="1">
          <mxGeometry x="560" y="265" width="120" height="40" as="geometry" />
        </mxCell>
        <mxCell id="MhV0f1ImMpq3AGTW3nh8-58" value="&lt;font style=&quot;font-size: 15px;&quot;&gt;Persistent Volume&lt;/font&gt;" style="whiteSpace=wrap;html=1;rounded=1;" parent="1" vertex="1">
          <mxGeometry x="760" y="545" width="120" height="40" as="geometry" />
        </mxCell>
        <mxCell id="MhV0f1ImMpq3AGTW3nh8-60" value="&lt;font style=&quot;font-size: 15px;&quot;&gt;Persistent Volume Claim&lt;/font&gt;" style="whiteSpace=wrap;html=1;rounded=1;" parent="1" vertex="1">
          <mxGeometry x="760" y="615" width="120" height="40" as="geometry" />
        </mxCell>
        <mxCell id="MhV0f1ImMpq3AGTW3nh8-62" value="" style="edgeStyle=orthogonalEdgeStyle;rounded=0;orthogonalLoop=1;jettySize=auto;html=1;exitX=0.5;exitY=1;exitDx=0;exitDy=0;" parent="1" source="MhV0f1ImMpq3AGTW3nh8-58" edge="1">
          <mxGeometry relative="1" as="geometry">
            <mxPoint x="815" y="605" as="sourcePoint" />
            <mxPoint x="820" y="615" as="targetPoint" />
            <Array as="points" />
          </mxGeometry>
        </mxCell>
        <mxCell id="MhV0f1ImMpq3AGTW3nh8-63" value="&lt;span style=&quot;font-size: 15px;&quot;&gt;secrets&lt;/span&gt;" style="rounded=1;whiteSpace=wrap;html=1;" parent="1" vertex="1">
          <mxGeometry x="359.76" y="505" width="120" height="40" as="geometry" />
        </mxCell>
        <mxCell id="MhV0f1ImMpq3AGTW3nh8-64" value="" style="endArrow=classic;html=1;rounded=0;entryX=0;entryY=0.5;entryDx=0;entryDy=0;" parent="1" edge="1">
          <mxGeometry width="50" height="50" relative="1" as="geometry">
            <mxPoint x="290" y="524.5" as="sourcePoint" />
            <mxPoint x="359.76" y="524.5" as="targetPoint" />
          </mxGeometry>
        </mxCell>
        <mxCell id="MhV0f1ImMpq3AGTW3nh8-65" value="" style="endArrow=none;html=1;rounded=0;" parent="1" edge="1">
          <mxGeometry width="50" height="50" relative="1" as="geometry">
            <mxPoint x="290" y="630" as="sourcePoint" />
            <mxPoint x="289.76" y="375" as="targetPoint" />
          </mxGeometry>
        </mxCell>
        <mxCell id="MhV0f1ImMpq3AGTW3nh8-66" value="&lt;font style=&quot;font-size: 15px;&quot;&gt;namespaces&lt;/font&gt;" style="rounded=1;whiteSpace=wrap;html=1;" parent="1" vertex="1">
          <mxGeometry x="359.76" y="555" width="120" height="40" as="geometry" />
        </mxCell>
        <mxCell id="MhV0f1ImMpq3AGTW3nh8-67" value="" style="endArrow=classic;html=1;rounded=0;entryX=0;entryY=0.5;entryDx=0;entryDy=0;" parent="1" edge="1">
          <mxGeometry width="50" height="50" relative="1" as="geometry">
            <mxPoint x="290" y="574.5" as="sourcePoint" />
            <mxPoint x="359.76" y="574.5" as="targetPoint" />
          </mxGeometry>
        </mxCell>
        <mxCell id="MhV0f1ImMpq3AGTW3nh8-68" value="&lt;font style=&quot;font-size: 15px;&quot;&gt;Stateful Set&lt;/font&gt;" style="rounded=1;whiteSpace=wrap;html=1;" parent="1" vertex="1">
          <mxGeometry x="970.24" y="335" width="120" height="40" as="geometry" />
        </mxCell>
        <mxCell id="MhV0f1ImMpq3AGTW3nh8-69" value="" style="endArrow=classic;html=1;rounded=0;entryX=0;entryY=0.5;entryDx=0;entryDy=0;" parent="1" edge="1">
          <mxGeometry width="50" height="50" relative="1" as="geometry">
            <mxPoint x="900.48" y="354.44000000000005" as="sourcePoint" />
            <mxPoint x="970.24" y="354.44000000000005" as="targetPoint" />
          </mxGeometry>
        </mxCell>
        <mxCell id="MhV0f1ImMpq3AGTW3nh8-70" value="&lt;font style=&quot;font-size: 15px;&quot;&gt;configMaps&lt;/font&gt;" style="rounded=1;whiteSpace=wrap;html=1;" parent="1" vertex="1">
          <mxGeometry x="359.76" y="455" width="120" height="40" as="geometry" />
        </mxCell>
        <mxCell id="MhV0f1ImMpq3AGTW3nh8-71" value="" style="endArrow=classic;html=1;rounded=0;entryX=0;entryY=0.5;entryDx=0;entryDy=0;" parent="1" edge="1">
          <mxGeometry width="50" height="50" relative="1" as="geometry">
            <mxPoint x="290" y="474.5" as="sourcePoint" />
            <mxPoint x="359.76" y="474.5" as="targetPoint" />
          </mxGeometry>
        </mxCell>
        <mxCell id="MhV0f1ImMpq3AGTW3nh8-72" value="&lt;font style=&quot;font-size: 15px;&quot;&gt;Cron jobs&lt;br&gt;&lt;/font&gt;" style="rounded=1;whiteSpace=wrap;html=1;" parent="1" vertex="1">
          <mxGeometry x="359.76" y="405" width="120" height="40" as="geometry" />
        </mxCell>
        <mxCell id="MhV0f1ImMpq3AGTW3nh8-73" value="" style="endArrow=classic;html=1;rounded=0;entryX=0;entryY=0.5;entryDx=0;entryDy=0;" parent="1" edge="1">
          <mxGeometry width="50" height="50" relative="1" as="geometry">
            <mxPoint x="290" y="424.5" as="sourcePoint" />
            <mxPoint x="359.76" y="424.5" as="targetPoint" />
          </mxGeometry>
        </mxCell>
        <mxCell id="MhV0f1ImMpq3AGTW3nh8-141" value="&lt;span style=&quot;font-size: 15px;&quot;&gt;Scheduling&lt;br&gt;&lt;/span&gt;" style="rounded=1;whiteSpace=wrap;html=1;" parent="1" vertex="1">
          <mxGeometry x="359.76" y="610" width="120" height="40" as="geometry" />
        </mxCell>
        <mxCell id="MhV0f1ImMpq3AGTW3nh8-142" value="" style="endArrow=classic;html=1;rounded=0;entryX=0;entryY=0.5;entryDx=0;entryDy=0;" parent="1" edge="1">
          <mxGeometry width="50" height="50" relative="1" as="geometry">
            <mxPoint x="290" y="629.5" as="sourcePoint" />
            <mxPoint x="359.76" y="629.5" as="targetPoint" />
          </mxGeometry>
        </mxCell>
        <mxCell id="MhV0f1ImMpq3AGTW3nh8-145" value="&lt;b&gt;&lt;font color=&quot;#ff0000&quot; style=&quot;font-size: 80px;&quot;&gt;k8s Cloud&lt;/font&gt;&lt;/b&gt;" style="text;html=1;strokeColor=none;fillColor=none;align=center;verticalAlign=middle;whiteSpace=wrap;rounded=0;" parent="1" vertex="1">
          <mxGeometry x="570" y="-120" width="395" height="150" as="geometry" />
        </mxCell>
        <mxCell id="MhV0f1ImMpq3AGTW3nh8-147" value="&lt;font color=&quot;#007ea8&quot; style=&quot;font-size: 31px;&quot;&gt;Author: Sharma Akella&lt;/font&gt;" style="text;html=1;strokeColor=none;fillColor=none;align=center;verticalAlign=middle;whiteSpace=wrap;rounded=0;" parent="1" vertex="1">
          <mxGeometry x="920" y="410" width="380" height="95" as="geometry" />
        </mxCell>
        <mxCell id="MhV0f1ImMpq3AGTW3nh8-148" value="" style="shape=ext;double=1;rounded=0;whiteSpace=wrap;html=1;" parent="1" vertex="1">
          <mxGeometry y="445" width="250" height="145" as="geometry" />
        </mxCell>
        <mxCell id="MhV0f1ImMpq3AGTW3nh8-149" value="&lt;font style=&quot;font-size: 15px;&quot;&gt;POD 2&lt;/font&gt;" style="ellipse;whiteSpace=wrap;html=1;" parent="1" vertex="1">
          <mxGeometry x="137.5" y="490" width="95" height="40" as="geometry" />
        </mxCell>
        <mxCell id="MhV0f1ImMpq3AGTW3nh8-150" value="&lt;font style=&quot;font-size: 15px;&quot;&gt;POD - 1&lt;/font&gt;" style="ellipse;whiteSpace=wrap;html=1;" parent="1" vertex="1">
          <mxGeometry x="10" y="450" width="110" height="30" as="geometry" />
        </mxCell>
        <mxCell id="MhV0f1ImMpq3AGTW3nh8-151" value="" style="ellipse;whiteSpace=wrap;html=1;aspect=fixed;" parent="1" vertex="1">
          <mxGeometry x="50" y="503.75" width="35" height="35" as="geometry" />
        </mxCell>
        <mxCell id="MhV0f1ImMpq3AGTW3nh8-152" value="" style="ellipse;whiteSpace=wrap;html=1;aspect=fixed;" parent="1" vertex="1">
          <mxGeometry x="30" y="550" width="30" height="30" as="geometry" />
        </mxCell>
        <mxCell id="MhV0f1ImMpq3AGTW3nh8-153" value="" style="ellipse;whiteSpace=wrap;html=1;aspect=fixed;" parent="1" vertex="1">
          <mxGeometry x="85" y="530" width="40" height="40" as="geometry" />
        </mxCell>
        <mxCell id="MhV0f1ImMpq3AGTW3nh8-158" value="" style="endArrow=classic;html=1;rounded=0;entryX=0.016;entryY=0.646;entryDx=0;entryDy=0;entryPerimeter=0;" parent="1" target="MhV0f1ImMpq3AGTW3nh8-152" edge="1">
          <mxGeometry width="50" height="50" relative="1" as="geometry">
            <mxPoint x="-40" y="560" as="sourcePoint" />
            <mxPoint x="20" y="520" as="targetPoint" />
          </mxGeometry>
        </mxCell>
        <mxCell id="MhV0f1ImMpq3AGTW3nh8-159" value="" style="endArrow=classic;html=1;rounded=0;entryX=0.035;entryY=0.29;entryDx=0;entryDy=0;entryPerimeter=0;" parent="1" target="MhV0f1ImMpq3AGTW3nh8-153" edge="1">
          <mxGeometry width="50" height="50" relative="1" as="geometry">
            <mxPoint x="-40" y="560" as="sourcePoint" />
            <mxPoint x="17" y="550" as="targetPoint" />
          </mxGeometry>
        </mxCell>
        <mxCell id="MhV0f1ImMpq3AGTW3nh8-160" value="" style="endArrow=classic;html=1;rounded=0;entryX=0;entryY=1;entryDx=0;entryDy=0;" parent="1" target="MhV0f1ImMpq3AGTW3nh8-151" edge="1">
          <mxGeometry width="50" height="50" relative="1" as="geometry">
            <mxPoint x="-40" y="560" as="sourcePoint" />
            <mxPoint x="10" y="510" as="targetPoint" />
          </mxGeometry>
        </mxCell>
        <mxCell id="MhV0f1ImMpq3AGTW3nh8-161" value="" style="endArrow=classic;html=1;rounded=0;entryX=0.222;entryY=0.778;entryDx=0;entryDy=0;entryPerimeter=0;" parent="1" target="MhV0f1ImMpq3AGTW3nh8-150" edge="1">
          <mxGeometry width="50" height="50" relative="1" as="geometry">
            <mxPoint x="-30" y="500" as="sourcePoint" />
            <mxPoint x="20" y="450" as="targetPoint" />
          </mxGeometry>
        </mxCell>
        <mxCell id="MhV0f1ImMpq3AGTW3nh8-162" value="" style="endArrow=classic;html=1;rounded=0;entryX=0.019;entryY=0.316;entryDx=0;entryDy=0;entryPerimeter=0;" parent="1" target="MhV0f1ImMpq3AGTW3nh8-149" edge="1">
          <mxGeometry width="50" height="50" relative="1" as="geometry">
            <mxPoint x="-130" y="503" as="sourcePoint" />
            <mxPoint x="30" y="500" as="targetPoint" />
          </mxGeometry>
        </mxCell>
        <mxCell id="MhV0f1ImMpq3AGTW3nh8-163" value="&lt;font style=&quot;font-size: 15px;&quot;&gt;POD 2&lt;/font&gt;" style="ellipse;whiteSpace=wrap;html=1;" parent="1" vertex="1">
          <mxGeometry x="141.25" y="450" width="95" height="40" as="geometry" />
        </mxCell>
        <mxCell id="MhV0f1ImMpq3AGTW3nh8-164" value="" style="endArrow=classic;html=1;rounded=0;entryX=0;entryY=1;entryDx=0;entryDy=0;" parent="1" target="MhV0f1ImMpq3AGTW3nh8-163" edge="1">
          <mxGeometry width="50" height="50" relative="1" as="geometry">
            <mxPoint x="-30" y="500" as="sourcePoint" />
            <mxPoint x="33.75" y="460" as="targetPoint" />
          </mxGeometry>
        </mxCell>
        <mxCell id="MhV0f1ImMpq3AGTW3nh8-168" value="" style="endArrow=none;html=1;rounded=0;exitX=0.129;exitY=0.74;exitDx=0;exitDy=0;exitPerimeter=0;" parent="1" source="MhV0f1ImMpq3AGTW3nh8-74" edge="1">
          <mxGeometry width="50" height="50" relative="1" as="geometry">
            <mxPoint x="-110" y="560" as="sourcePoint" />
            <mxPoint x="-40" y="560" as="targetPoint" />
          </mxGeometry>
        </mxCell>
        <mxCell id="MhV0f1ImMpq3AGTW3nh8-169" value="Application pods" style="text;html=1;strokeColor=none;fillColor=none;align=center;verticalAlign=middle;whiteSpace=wrap;rounded=0;spacingTop=5;spacingBottom=7;fontSize=15;" parent="1" vertex="1">
          <mxGeometry x="-135" y="485" width="100" height="35" as="geometry" />
        </mxCell>
        <mxCell id="MhV0f1ImMpq3AGTW3nh8-170" value="kube-system pods" style="text;html=1;strokeColor=none;fillColor=none;align=center;verticalAlign=middle;whiteSpace=wrap;rounded=0;spacing=3;spacingBottom=5;spacingTop=4;fontSize=15;" parent="1" vertex="1">
          <mxGeometry x="-125" y="530" width="90" height="60" as="geometry" />
        </mxCell>
        <mxCell id="MhV0f1ImMpq3AGTW3nh8-74" value="" style="ellipse;shape=cloud;whiteSpace=wrap;html=1;" parent="1" vertex="1">
          <mxGeometry x="-350" y="-380" width="1780" height="1270" as="geometry" />
        </mxCell>
      </root>
    </mxGraphModel>
  </diagram>
</mxfile>
